<svg width="1271" height="288" viewBox="0 0 1271 288" fill="none" xmlns="http://www.w3.org/2000/svg">
<path d="M66.704 33.792C72.592 33.792 77.84 34.56 82.448 36.096C87.056 37.5467 90.896 39.68 93.968 42.496C97.1253 45.2267 99.5147 48.5547 101.136 52.48C102.757 56.32 103.568 60.672 103.568 65.536C103.568 69.376 102.971 73.216 101.776 77.056C100.667 80.896 98.7893 84.3947 96.144 87.552C93.584 90.7093 90.1707 93.2693 85.904 95.232C81.6373 97.1093 76.3467 98.048 70.032 98.048H56.72V128H38.16V33.792H66.704ZM69.904 80.128C72.72 80.128 75.0667 79.6587 76.944 78.72C78.8213 77.7813 80.272 76.5867 81.296 75.136C82.4053 73.6853 83.1733 72.192 83.6 70.656C84.112 69.0347 84.368 67.5413 84.368 66.176C84.368 65.152 84.1973 63.872 83.856 62.336C83.6 60.7147 83.0027 59.0933 82.064 57.472C81.1253 55.8507 79.6747 54.4853 77.712 53.376C75.8347 52.2667 73.2747 51.712 70.032 51.712H56.72V80.128H69.904ZM87.312 91.648L110.608 128H88.976L65.168 92.16L87.312 91.648ZM125.91 33.792H144.47V128H125.91V33.792ZM196.433 33.792C206.246 33.792 214.054 35.7973 219.857 39.808C225.66 43.7333 228.561 49.6213 228.561 57.472C228.561 63.2747 227.11 68.1387 224.209 72.064C221.393 75.904 217.51 78.8053 212.561 80.768C207.697 82.6453 202.108 83.584 195.793 83.584L192.849 73.6C200.614 73.6 207.484 74.6667 213.457 76.8C219.516 78.9333 224.294 82.0053 227.793 86.016C231.292 89.9413 233.041 94.6773 233.041 100.224C233.041 105.344 232.102 109.696 230.225 113.28C228.433 116.779 225.958 119.637 222.801 121.856C219.729 123.989 216.23 125.568 212.305 126.592C208.38 127.531 204.326 128 200.145 128H168.785V33.792H196.433ZM198.609 72.32C202.278 72.32 204.966 71.2107 206.673 68.992C208.465 66.7733 209.361 64.256 209.361 61.44C209.361 58.1973 208.252 55.7653 206.033 54.144C203.9 52.5227 200.998 51.712 197.329 51.712H187.345V72.32H198.609ZM199.249 110.72C201.98 110.72 204.454 110.379 206.673 109.696C208.892 108.928 210.641 107.776 211.921 106.24C213.201 104.619 213.841 102.613 213.841 100.224C213.841 97.4933 213.073 95.4453 211.537 94.08C210.001 92.6293 207.996 91.648 205.521 91.136C203.132 90.5387 200.614 90.24 197.969 90.24H187.345V110.72H199.249ZM251.66 33.792H315.916V51.712H270.22V71.808H310.668V89.728H270.22V110.08H317.708V128H251.66V33.792ZM336.91 33.792H355.47V128H336.91V33.792ZM408.329 33.792C414.217 33.792 419.465 34.56 424.073 36.096C428.681 37.5467 432.521 39.68 435.593 42.496C438.75 45.2267 441.14 48.5547 442.761 52.48C444.382 56.32 445.193 60.672 445.193 65.536C445.193 69.376 444.596 73.216 443.401 77.056C442.292 80.896 440.414 84.3947 437.769 87.552C435.209 90.7093 431.796 93.2693 427.529 95.232C423.262 97.1093 417.972 98.048 411.657 98.048H398.345V128H379.785V33.792H408.329ZM411.529 80.128C414.345 80.128 416.692 79.6587 418.569 78.72C420.446 77.7813 421.897 76.5867 422.921 75.136C424.03 73.6853 424.798 72.192 425.225 70.656C425.737 69.0347 425.993 67.5413 425.993 66.176C425.993 65.152 425.822 63.872 425.481 62.336C425.225 60.7147 424.628 59.0933 423.689 57.472C422.75 55.8507 421.3 54.4853 419.337 53.376C417.46 52.2667 414.9 51.712 411.657 51.712H398.345V80.128H411.529ZM428.937 91.648L452.233 128H430.601L406.793 92.16L428.937 91.648ZM456.911 128L499.407 30.08H500.431L542.927 128H521.423L494.287 59.136L507.727 49.92L475.215 128H456.911ZM485.967 93.952H514.255L520.783 109.568H480.207L485.967 93.952ZM509.903 20.096C507.002 20.096 504.57 19.4987 502.607 18.304C500.644 17.024 498.852 15.744 497.231 14.464C496.292 13.696 495.354 13.0133 494.415 12.416C493.562 11.8187 492.623 11.52 491.599 11.52C490.49 11.52 489.594 11.9467 488.911 12.8C488.314 13.6533 487.93 14.72 487.759 16C487.588 17.28 487.588 18.56 487.759 19.84H478.799C478.372 16.512 478.628 13.3547 479.567 10.368C480.591 7.38133 482.17 4.94933 484.303 3.07199C486.522 1.19466 489.295 0.255997 492.623 0.255997C494.756 0.255997 496.676 0.85333 498.383 2.048C500.09 3.24266 501.668 4.43733 503.119 5.632C504.314 6.65599 505.423 7.55199 506.447 8.31999C507.471 9.08799 508.495 9.47199 509.519 9.47199C511.14 9.47199 512.079 8.53333 512.335 6.65599C512.676 4.69332 512.804 2.68799 512.719 0.639992H521.679C522.276 4.30933 522.106 7.63733 521.167 10.624C520.228 13.5253 518.735 15.8293 516.687 17.536C514.724 19.2427 512.463 20.096 509.903 20.096ZM544.4 81.024C544.4 74.5387 545.637 68.3947 548.112 62.592C550.587 56.7893 554 51.6693 558.352 47.232C562.789 42.7093 567.909 39.168 573.712 36.608C579.515 34.048 585.744 32.768 592.4 32.768C598.971 32.768 605.157 34.048 610.96 36.608C616.763 39.168 621.883 42.7093 626.32 47.232C630.843 51.6693 634.341 56.7893 636.816 62.592C639.376 68.3947 640.656 74.5387 640.656 81.024C640.656 87.68 639.376 93.9093 636.816 99.712C634.341 105.515 630.843 110.635 626.32 115.072C621.883 119.424 616.763 122.837 610.96 125.312C605.157 127.787 598.971 129.024 592.4 129.024C585.744 129.024 579.515 127.787 573.712 125.312C567.909 122.837 562.789 119.424 558.352 115.072C554 110.635 550.587 105.515 548.112 99.712C545.637 93.9093 544.4 87.68 544.4 81.024ZM563.6 81.024C563.6 85.2053 564.325 89.1307 565.776 92.8C567.312 96.384 569.403 99.584 572.048 102.4C574.779 105.131 577.893 107.264 581.392 108.8C584.976 110.336 588.859 111.104 593.04 111.104C597.051 111.104 600.763 110.336 604.176 108.8C607.675 107.264 610.704 105.131 613.264 102.4C615.824 99.584 617.829 96.384 619.28 92.8C620.731 89.1307 621.456 85.2053 621.456 81.024C621.456 76.7573 620.688 72.7893 619.152 69.12C617.701 65.4507 615.653 62.2507 613.008 59.52C610.448 56.704 607.419 54.528 603.92 52.992C600.421 51.456 596.624 50.688 592.528 50.688C588.432 50.688 584.635 51.456 581.136 52.992C577.637 54.528 574.565 56.704 571.92 59.52C569.275 62.2507 567.227 65.4507 565.776 69.12C564.325 72.7893 563.6 76.7573 563.6 81.024ZM771.441 120.192C770.417 121.045 768.497 122.197 765.681 123.648C762.95 125.099 759.58 126.379 755.569 127.488C751.558 128.597 747.121 129.109 742.257 129.024C734.833 128.853 728.177 127.531 722.289 125.056C716.486 122.496 711.537 119.04 707.441 114.688C703.43 110.336 700.358 105.344 698.225 99.712C696.092 94.08 695.025 88.064 695.025 81.664C695.025 74.496 696.092 67.9253 698.225 61.952C700.444 55.9787 703.558 50.816 707.569 46.464C711.665 42.112 716.529 38.7413 722.161 36.352C727.793 33.9627 734.022 32.768 740.849 32.768C747.164 32.768 752.753 33.6213 757.617 35.328C762.481 37.0347 766.449 38.8693 769.521 40.832L762.225 58.368C760.092 56.7467 757.233 55.0827 753.649 53.376C750.15 51.584 746.097 50.688 741.489 50.688C737.905 50.688 734.449 51.456 731.121 52.992C727.878 54.4427 724.977 56.5333 722.417 59.264C719.942 61.9947 717.98 65.1947 716.529 68.864C715.078 72.448 714.353 76.3733 714.353 80.64C714.353 85.1627 714.993 89.3013 716.273 93.056C717.638 96.8107 719.558 100.053 722.033 102.784C724.508 105.429 727.452 107.477 730.865 108.928C734.364 110.379 738.289 111.104 742.641 111.104C747.676 111.104 751.985 110.293 755.569 108.672C759.153 107.051 761.884 105.344 763.761 103.552L771.441 120.192ZM779.411 128L821.907 30.08H822.931L865.427 128H843.923L816.787 59.136L830.227 49.92L797.715 128H779.411ZM808.467 93.952H836.755L843.283 109.568H802.707L808.467 93.952ZM829.203 23.552L819.219 14.08L823.571 12.8L813.459 23.552H797.331L821.011 0H821.139L845.331 23.552H829.203ZM879.16 128V29.952H879.288L931.64 104.192L923.704 102.4L975.928 29.952H976.184V128H957.624V71.808L958.776 81.408L926.904 126.72H926.648L893.88 81.408L897.08 72.576V128H879.16ZM1028.18 33.792C1038 33.792 1045.8 35.7973 1051.61 39.808C1057.41 43.7333 1060.31 49.6213 1060.31 57.472C1060.31 63.2747 1058.86 68.1387 1055.96 72.064C1053.14 75.904 1049.26 78.8053 1044.31 80.768C1039.45 82.6453 1033.86 83.584 1027.54 83.584L1024.6 73.6C1032.36 73.6 1039.23 74.6667 1045.21 76.8C1051.27 78.9333 1056.04 82.0053 1059.54 86.016C1063.04 89.9413 1064.79 94.6773 1064.79 100.224C1064.79 105.344 1063.85 109.696 1061.98 113.28C1060.18 116.779 1057.71 119.637 1054.55 121.856C1051.48 123.989 1047.98 125.568 1044.06 126.592C1040.13 127.531 1036.08 128 1031.9 128H1000.54V33.792H1028.18ZM1030.36 72.32C1034.03 72.32 1036.72 71.2107 1038.42 68.992C1040.22 66.7733 1041.11 64.256 1041.11 61.44C1041.11 58.1973 1040 55.7653 1037.78 54.144C1035.65 52.5227 1032.75 51.712 1029.08 51.712H1019.1V72.32H1030.36ZM1031 110.72C1033.73 110.72 1036.2 110.379 1038.42 109.696C1040.64 108.928 1042.39 107.776 1043.67 106.24C1044.95 104.619 1045.59 102.613 1045.59 100.224C1045.59 97.4933 1044.82 95.4453 1043.29 94.08C1041.75 92.6293 1039.75 91.648 1037.27 91.136C1034.88 90.5387 1032.36 90.24 1029.72 90.24H1019.1V110.72H1031ZM1083.41 33.792H1101.97V128H1083.41V33.792ZM1120.53 81.024C1120.53 74.5387 1121.76 68.3947 1124.24 62.592C1126.71 56.7893 1130.13 51.6693 1134.48 47.232C1138.91 42.7093 1144.03 39.168 1149.84 36.608C1155.64 34.048 1161.87 32.768 1168.53 32.768C1175.1 32.768 1181.28 34.048 1187.09 36.608C1192.89 39.168 1198.01 42.7093 1202.45 47.232C1206.97 51.6693 1210.47 56.7893 1212.94 62.592C1215.5 68.3947 1216.78 74.5387 1216.78 81.024C1216.78 87.68 1215.5 93.9093 1212.94 99.712C1210.47 105.515 1206.97 110.635 1202.45 115.072C1198.01 119.424 1192.89 122.837 1187.09 125.312C1181.28 127.787 1175.1 129.024 1168.53 129.024C1161.87 129.024 1155.64 127.787 1149.84 125.312C1144.03 122.837 1138.91 119.424 1134.48 115.072C1130.13 110.635 1126.71 105.515 1124.24 99.712C1121.76 93.9093 1120.53 87.68 1120.53 81.024ZM1139.73 81.024C1139.73 85.2053 1140.45 89.1307 1141.9 92.8C1143.44 96.384 1145.53 99.584 1148.17 102.4C1150.9 105.131 1154.02 107.264 1157.52 108.8C1161.1 110.336 1164.98 111.104 1169.17 111.104C1173.18 111.104 1176.89 110.336 1180.3 108.8C1183.8 107.264 1186.83 105.131 1189.39 102.4C1191.95 99.584 1193.95 96.384 1195.41 92.8C1196.86 89.1307 1197.58 85.2053 1197.58 81.024C1197.58 76.7573 1196.81 72.7893 1195.28 69.12C1193.83 65.4507 1191.78 62.2507 1189.13 59.52C1186.57 56.704 1183.54 54.528 1180.05 52.992C1176.55 51.456 1172.75 50.688 1168.65 50.688C1164.56 50.688 1160.76 51.456 1157.26 52.992C1153.76 54.528 1150.69 56.704 1148.05 59.52C1145.4 62.2507 1143.35 65.4507 1141.9 69.12C1140.45 72.7893 1139.73 76.7573 1139.73 81.024Z" fill="black"/>
<path d="M586.2 165.12C589.613 165.12 592.984 165.632 596.312 166.656C599.725 167.595 602.797 169.131 605.528 171.264C608.344 173.312 610.605 175.957 612.312 179.2C614.019 182.443 614.872 186.325 614.872 190.848C614.872 194.261 614.36 197.589 613.336 200.832C612.312 203.989 610.648 206.848 608.344 209.408C606.04 211.968 603.053 214.016 599.384 215.552C595.715 217.088 591.192 217.856 585.816 217.856H571.736V256H565.464V165.12H586.2ZM585.432 211.84C589.955 211.84 593.709 211.2 596.696 209.92C599.683 208.64 602.029 206.976 603.736 204.928C605.443 202.88 606.637 200.661 607.32 198.272C608.088 195.797 608.472 193.408 608.472 191.104C608.472 188.373 607.96 185.813 606.936 183.424C605.997 181.035 604.589 178.944 602.712 177.152C600.835 175.275 598.573 173.824 595.928 172.8C593.283 171.691 590.339 171.136 587.096 171.136H571.736V211.84H585.432ZM598.488 214.656L623.704 256H616.408L591.064 214.784L598.488 214.656ZM710.869 249.984C708.906 251.179 706.645 252.331 704.085 253.44C701.525 254.549 698.709 255.403 695.637 256C692.565 256.683 689.237 257.024 685.653 257.024C678.741 257.024 672.469 255.829 666.837 253.44C661.205 250.965 656.384 247.637 652.373 243.456C648.362 239.189 645.248 234.325 643.029 228.864C640.896 223.317 639.829 217.429 639.829 211.2C639.829 204.544 640.981 198.357 643.285 192.64C645.589 186.923 648.832 181.931 653.013 177.664C657.194 173.397 662.058 170.069 667.605 167.68C673.152 165.291 679.168 164.096 685.653 164.096C690.432 164.096 694.912 164.736 699.093 166.016C703.274 167.296 707.072 168.96 710.485 171.008L707.797 176.768C704.81 174.891 701.44 173.312 697.685 172.032C693.93 170.752 689.962 170.112 685.781 170.112C680.405 170.112 675.328 171.179 670.549 173.312C665.77 175.36 661.546 178.261 657.877 182.016C654.293 185.685 651.477 189.995 649.429 194.944C647.381 199.893 646.357 205.227 646.357 210.944C646.357 216.405 647.253 221.568 649.045 226.432C650.922 231.296 653.568 235.563 656.981 239.232C660.48 242.901 664.661 245.803 669.525 247.936C674.389 249.984 679.808 251.008 685.781 251.008C690.218 251.008 694.272 250.411 697.941 249.216C701.696 247.936 705.024 246.357 707.925 244.48L710.869 249.984Z" fill="black"/>
<line y1="223.5" x2="500" y2="223.5" stroke="black"/>
<line x1="771" y1="223.5" x2="1271" y2="223.5" stroke="black"/>
</svg>
